<svg width="351.312" height="621.784" viewBox="-2648 -1302 1405.248 2487.136" xmlns="http://www.w3.org/2000/svg"><path d="M-1593.355-568.794h-704v-125.207h704v125.206m0-125.206v125.206h-704v-125.206zm-224-482.793h-256V-1302h256v125.206m0-125.205v125.205h-256V-1302h256z" style="fill:#000;fill-opacity:1;stroke-linejoin:miter"/><path d="M-2007.958-631.397v-608h125.206v608h-125.206m125.206 0h-125.206v-608h125.206zm34.794 992v-377.93l18.336-18.337 480-480 106.87-106.87v529.067l-18.336 18.337-640 640-44.267 44.266-44.267-44.266-640-640-18.336-18.336v-529.067l106.87 106.87 480 480 18.335 18.335v377.931c0 34.574-28.028 62.602-62.602 62.603-34.574 0-62.603-28.029-62.603-62.603v-352l18.336 44.267-480-480 106.87-44.267v352l-18.336-44.267 640 640h-88.534l640-640-18.336 44.267v-352l106.87 44.267-480 480 18.336-44.267v352c0 34.575-28.029 62.603-62.603 62.603-34.575 0-62.603-28.028-62.603-62.603z" style="display:inline;fill:#000;fill-opacity:1;stroke-linejoin:miter"/><path d="M-2167.958 482.533v480l18.336 18.336 160 160 44.267 44.268 44.267-44.266 160-160 18.336-18.336V482.533l-125.206 125.206v302.933l-97.397 97.397-97.397-97.397V607.739Zm0-953.93v232.864l125.206 125.205v-358.07zm320 0v358.07l125.206-125.206v-232.864zm-800.041 648.864v177.067l125.205 125.205 149.13 149.13 106.87 106.87v-352l-125.205-125.206v174.933l-130.796-130.793L-2648 177.468Zm1405.247 0-125.206 125.205v.001l-130.794 130.794V258.534l-125.206 125.205v352l106.87-106.87 149.13-149.13 125.206-125.205z" style="fill:#000;fill-opacity:1;stroke-linejoin:miter"/></svg>